<svg data-view="stack" viewBox="-391.2328767123288 -340 782.4657534246576 680" role="img" aria-label="Code to Magic 6ba95145ad7860aba45872053d5b8371cfeddd4218b38995ed6c251ffb189f03" xmlns="http://www.w3.org/2000/svg" width="1680" height="1460"><metadata>{"fileHash":"6ba95145ad7860aba45872053d5b8371cfeddd4218b38995ed6c251ffb189f03","structureHash":"82645b22e9bf62e3495aa0f57c66fb654da6cc86f944fc9628233a69674c6679","version":3,"time":0,"step":0,"mode":"stack","hidden":[],"solo":null,"result":{"kind":"number","period":12},"projection":{"tilt":0.57,"zoom":1,"spacing":65,"effectiveSpacing":65},"layers":[{"name":"main","color":"#81e4cf","period":12,"functions":[{"name":"main","radius":240,"period":12}],"satellites":[{"name":"gcd","owner":"f1","period":13}]}]}</metadata><defs><filter id="glow" x="-50%" y="-50%" width="200%" height="200%"><feGaussianBlur stdDeviation=".8" result="blur"/><feMerge><feMergeNode in="blur"/><feMergeNode in="SourceGraphic"/></feMerge></filter></defs><rect x="-391.2328767123288" y="-340" width="782.4657534246576" height="680" fill="#091313"/><g transform="scale(1)"><g data-layer="f1" data-color="#81e4cf" data-period="12" data-plane-transform="translate(0 0) scale(1 0.57)" transform="translate(0 0) scale(1 0.57)" stroke="#81e4cf" fill="none" stroke-linecap="round" stroke-linejoin="round"><g transform="translate(0 0)" data-ring-container="main" data-owner="f1" data-satellite="false"><g data-function-ring="main" data-radius="240" data-period="12" transform="rotate(0)" opacity="1"><g stroke-width=".75" filter="url(#glow)"><circle r="224" opacity=".65"/><circle r="256" opacity=".8"/><circle r="261" opacity=".3"/><path transform="rotate(0)" d="M263 0 h3.5" opacity=".5"/><path transform="rotate(3.75)" d="M263 0 h4.75" opacity=".5"/><path transform="rotate(7.5)" d="M263 0 h4.5" opacity=".5"/><path transform="rotate(11.25)" d="M263 0 h4.25" opacity=".5"/><path transform="rotate(15)" d="M263 0 h3.25" opacity=".5"/><path transform="rotate(18.75)" d="M263 0 h2.25" opacity=".5"/><path transform="rotate(22.5)" d="M263 0 h3" opacity=".5"/><path transform="rotate(26.25)" d="M263 0 h3.25" opacity=".5"/><path transform="rotate(30)" d="M263 0 h4.5" opacity=".5"/><path transform="rotate(33.75)" d="M263 0 h5.25" opacity=".5"/><path transform="rotate(37.5)" d="M263 0 h3.75" opacity=".5"/><path transform="rotate(41.25)" d="M263 0 h4" opacity=".5"/><path transform="rotate(45)" d="M263 0 h3.5" opacity=".5"/><path transform="rotate(48.75)" d="M263 0 h2" opacity=".5"/><path transform="rotate(52.5)" d="M263 0 h4.5" opacity=".5"/><path transform="rotate(56.25)" d="M263 0 h4.75" opacity=".5"/><path transform="rotate(60)" d="M263 0 h4.5" opacity=".5"/><path transform="rotate(63.75)" d="M263 0 h3" opacity=".5"/><path transform="rotate(67.5)" d="M263 0 h3.25" opacity=".5"/><path transform="rotate(71.25)" d="M263 0 h4" opacity=".5"/><path transform="rotate(75)" d="M263 0 h3.75" opacity=".5"/><path transform="rotate(78.75)" d="M263 0 h2.5" opacity=".5"/><path transform="rotate(82.5)" d="M263 0 h2" opacity=".5"/><path transform="rotate(86.25)" d="M263 0 h3.25" opacity=".5"/><path transform="rotate(90)" d="M263 0 h2.75" opacity=".5"/><path transform="rotate(93.75)" d="M263 0 h5.25" opacity=".5"/><path transform="rotate(97.5)" d="M263 0 h3.25" opacity=".5"/><path transform="rotate(101.25)" d="M263 0 h4.75" opacity=".5"/><path transform="rotate(105)" d="M263 0 h4" opacity=".5"/><path transform="rotate(108.75)" d="M263 0 h2.75" opacity=".5"/><path transform="rotate(112.5)" d="M263 0 h3.75" opacity=".5"/><path transform="rotate(116.25)" d="M263 0 h2.25" opacity=".5"/><path transform="rotate(120)" d="M263 0 h5" opacity=".5"/><path transform="rotate(123.75)" d="M263 0 h5.75" opacity=".5"/><path transform="rotate(127.5)" d="M263 0 h5.5" opacity=".5"/><path transform="rotate(131.25)" d="M263 0 h5.25" opacity=".5"/><path transform="rotate(135)" d="M263 0 h5.25" opacity=".5"/><path transform="rotate(138.75)" d="M263 0 h5.25" opacity=".5"/><path transform="rotate(142.5)" d="M263 0 h3" opacity=".5"/><path transform="rotate(146.25)" d="M263 0 h2.5" opacity=".5"/><path transform="rotate(150)" d="M263 0 h2.25" opacity=".5"/><path transform="rotate(153.75)" d="M263 0 h4" opacity=".5"/><path transform="rotate(157.5)" d="M263 0 h4.75" opacity=".5"/><path transform="rotate(161.25)" d="M263 0 h2.75" opacity=".5"/><path transform="rotate(165)" d="M263 0 h4" opacity=".5"/><path transform="rotate(168.75)" d="M263 0 h4.25" opacity=".5"/><path transform="rotate(172.5)" d="M263 0 h4.25" opacity=".5"/><path transform="rotate(176.25)" d="M263 0 h3.25" opacity=".5"/><path transform="rotate(180)" d="M263 0 h5.5" opacity=".5"/><path transform="rotate(183.75)" d="M263 0 h5.25" opacity=".5"/><path transform="rotate(187.5)" d="M263 0 h3.5" opacity=".5"/><path transform="rotate(191.25)" d="M263 0 h5" opacity=".5"/><path transform="rotate(195)" d="M263 0 h2.5" opacity=".5"/><path transform="rotate(198.75)" d="M263 0 h3.25" opacity=".5"/><path transform="rotate(202.5)" d="M263 0 h2.25" opacity=".5"/><path transform="rotate(206.25)" d="M263 0 h5.75" opacity=".5"/><path transform="rotate(210)" d="M263 0 h5.75" opacity=".5"/><path transform="rotate(213.75)" d="M263 0 h4.75" opacity=".5"/><path transform="rotate(217.5)" d="M263 0 h2.25" opacity=".5"/><path transform="rotate(221.25)" d="M263 0 h4" opacity=".5"/><path transform="rotate(225)" d="M263 0 h4.25" opacity=".5"/><path transform="rotate(228.75)" d="M263 0 h5.75" opacity=".5"/><path transform="rotate(232.5)" d="M263 0 h2" opacity=".5"/><path transform="rotate(236.25)" d="M263 0 h2.75" opacity=".5"/><path transform="rotate(240)" d="M263 0 h3.5" opacity=".5"/><path transform="rotate(243.75)" d="M263 0 h4.75" opacity=".5"/><path transform="rotate(247.5)" d="M263 0 h4.5" opacity=".5"/><path transform="rotate(251.25)" d="M263 0 h4.25" opacity=".5"/><path transform="rotate(255)" d="M263 0 h3.25" opacity=".5"/><path transform="rotate(258.75)" d="M263 0 h2.25" opacity=".5"/><path transform="rotate(262.5)" d="M263 0 h3" opacity=".5"/><path transform="rotate(266.25)" d="M263 0 h3.25" opacity=".5"/><path transform="rotate(270)" d="M263 0 h4.5" opacity=".5"/><path transform="rotate(273.75)" d="M263 0 h5.25" opacity=".5"/><path transform="rotate(277.5)" d="M263 0 h3.75" opacity=".5"/><path transform="rotate(281.25)" d="M263 0 h4" opacity=".5"/><path transform="rotate(285)" d="M263 0 h3.5" opacity=".5"/><path transform="rotate(288.75)" d="M263 0 h2" opacity=".5"/><path transform="rotate(292.5)" d="M263 0 h4.5" opacity=".5"/><path transform="rotate(296.25)" d="M263 0 h4.75" opacity=".5"/><path transform="rotate(300)" d="M263 0 h4.5" opacity=".5"/><path transform="rotate(303.75)" d="M263 0 h3" opacity=".5"/><path transform="rotate(307.5)" d="M263 0 h3.25" opacity=".5"/><path transform="rotate(311.25)" d="M263 0 h4" opacity=".5"/><path transform="rotate(315)" d="M263 0 h3.75" opacity=".5"/><path transform="rotate(318.75)" d="M263 0 h2.5" opacity=".5"/><path transform="rotate(322.5)" d="M263 0 h2" opacity=".5"/><path transform="rotate(326.25)" d="M263 0 h3.25" opacity=".5"/><path transform="rotate(330)" d="M263 0 h2.75" opacity=".5"/><path transform="rotate(333.75)" d="M263 0 h5.25" opacity=".5"/><path transform="rotate(337.5)" d="M263 0 h3.25" opacity=".5"/><path transform="rotate(341.25)" d="M263 0 h4.75" opacity=".5"/><path transform="rotate(345)" d="M263 0 h4" opacity=".5"/><path transform="rotate(348.75)" d="M263 0 h2.75" opacity=".5"/><path transform="rotate(352.5)" d="M263 0 h3.75" opacity=".5"/><path transform="rotate(356.25)" d="M263 0 h2.25" opacity=".5"/></g><g data-node="f1n0" role="button" tabindex="0" aria-label="declaration，第 18 行" style="cursor: pointer;"><circle cx="153.92185467947584" cy="-184.14142025093196" r="18" fill="#091313" fill-opacity=".01" stroke="#81e4cf"/><g data-sigil="bind" data-token-angle="-80.02702702702703" transform="translate(41.564067384066824 -236.37349323156508) rotate(9.972972972972968) scale(0.68)"><title>bind · 声明与名称绑定</title><path d="M0 -10 L8 0 L0 10 L-8 0 Z M-4 0 H4" stroke="#81e4cf" stroke-width="1.9" filter="url(#glow)"/></g><g data-sigil="unsigned" data-token-angle="-60.08108108108108" transform="translate(119.70575031567296 -208.01570455463636) rotate(29.91891891891892) scale(0.68)"><title>unsigned · 无符号范围</title><path d="M-7 -9 V3 Q-7 10 0 10 Q7 10 7 3 V-9 M-3 -3 H3" stroke="#81e4cf" stroke-width="1.9" filter="url(#glow)"/></g><g data-sigil="int" data-token-angle="-40.13513513513513" transform="translate(183.48630364490225 -154.70221838981735) rotate(49.86486486486487) scale(0.68)"><title>int · 整数：有刻度的计量主轴</title><path d="M0 -9 V9 M-5 -9 H5 M-5 9 H5 M-3 -2 H3 M-3 2 H3" stroke="#81e4cf" stroke-width="1.9" filter="url(#glow)"/></g><g data-sigil="=" data-token-angle="-20.18918918918918" transform="translate(225.25395801182907 -82.8290673616765) rotate(69.81081081081082) scale(0.68)"><title>= · 赋值：值流入存储</title><path d="M-9 -3 H6 M-9 3 H6 M3 -7 L9 0 L3 7" stroke="#81e4cf" stroke-width="1.9" filter="url(#glow)"/></g><circle cx="153.92185467947584" cy="-184.14142025093196" r="19" opacity=".5"/></g><g data-node="f1n1" role="button" tabindex="0" aria-label="declaration，第 19 行" style="cursor: pointer;"><circle cx="208.5220267086057" cy="118.82156528734812" r="18" fill="#091313" fill-opacity=".01" stroke="none"/><g data-sigil="bind" data-token-angle="-0.24324324324323676" transform="translate(239.99783719731684 -1.0188918540249945) rotate(89.75675675675676) scale(0.68)"><title>bind · 声明与名称绑定</title><path d="M0 -10 L8 0 L0 10 L-8 0 Z M-4 0 H4" stroke="#81e4cf" stroke-width="1.4" filter="url(#glow)"/></g><g data-sigil="unsigned" data-token-angle="19.70270270270271" transform="translate(225.949114229677 80.91352037097612) rotate(109.70270270270271) scale(0.68)"><title>unsigned · 无符号范围</title><path d="M-7 -9 V3 Q-7 10 0 10 Q7 10 7 3 V-9 M-3 -3 H3" stroke="#81e4cf" stroke-width="1.4" filter="url(#glow)"/></g><g data-sigil="int" data-token-angle="39.64864864864866" transform="translate(184.79321801064668 153.13871678079843) rotate(129.64864864864865) scale(0.68)"><title>int · 整数：有刻度的计量主轴</title><path d="M0 -9 V9 M-5 -9 H5 M-5 9 H5 M-3 -2 H3 M-3 2 H3" stroke="#81e4cf" stroke-width="1.4" filter="url(#glow)"/></g><g data-sigil="=" data-token-angle="59.59459459459461" transform="translate(121.46763197727743 206.99182201679537) rotate(149.5945945945946) scale(0.68)"><title>= · 赋值：值流入存储</title><path d="M-9 -3 H6 M-9 3 H6 M3 -7 L9 0 L3 7" stroke="#81e4cf" stroke-width="1.4" filter="url(#glow)"/></g></g><g data-node="f1n2" role="button" tabindex="0" aria-label="declaration，第 20 行" style="cursor: pointer;"><circle cx="-79.95355073809392" cy="226.29058691066015" r="18" fill="#091313" fill-opacity=".01" stroke="none"/><g data-sigil="bind" data-token-angle="79.54054054054055" transform="translate(43.569542946188015 236.01206521587042) rotate(169.54054054054055) scale(0.68)"><title>bind · 声明与名称绑定</title><path d="M0 -10 L8 0 L0 10 L-8 0 Z M-4 0 H4" stroke="#81e4cf" stroke-width="1.4" filter="url(#glow)"/></g><g data-sigil="unsigned" data-token-angle="99.4864864864865" transform="translate(-39.55559533956541 236.71788034986403) rotate(189.4864864864865) scale(0.68)"><title>unsigned · 无符号范围</title><path d="M-7 -9 V3 Q-7 10 0 10 Q7 10 7 3 V-9 M-3 -3 H3" stroke="#81e4cf" stroke-width="1.4" filter="url(#glow)"/></g><g data-sigil="int" data-token-angle="119.43243243243245" transform="translate(-117.93523869568806 209.02459059591789) rotate(209.43243243243245) scale(0.68)"><title>int · 整数：有刻度的计量主轴</title><path d="M0 -9 V9 M-5 -9 H5 M-5 9 H5 M-3 -2 H3 M-3 2 H3" stroke="#81e4cf" stroke-width="1.4" filter="url(#glow)"/></g><g data-sigil="=" data-token-angle="139.3783783783784" transform="translate(-182.16616118310014 156.25456703665586) rotate(229.3783783783784) scale(0.68)"><title>= · 赋值：值流入存储</title><path d="M-9 -3 H6 M-9 3 H6 M3 -7 L9 0 L3 7" stroke="#81e4cf" stroke-width="1.4" filter="url(#glow)"/></g></g><g data-node="f1n3" role="button" tabindex="0" aria-label="gcd，第 20 行" style="cursor: pointer;"><circle cx="-231.19551246769052" cy="64.40989842254024" r="18" fill="#091313" fill-opacity=".01" stroke="none"/><g data-sigil="call" data-token-angle="164.43243243243245" transform="translate(-231.19551246769052 64.40989842254024) rotate(254.43243243243245) scale(0.68)"><title>call · 函数调用：穿过作用域之眼</title><path d="M-10 0 Q0 -12 10 0 Q0 12 -10 0 M0 -4 A4 4 0 1 0 0 4 A4 4 0 1 0 0 -4 M0 -10 V-6 M0 6 V10" stroke="#81e4cf" stroke-width="1.4" filter="url(#glow)"/></g></g><g data-node="f1n4" role="button" tabindex="0" aria-label="expression statement，第 21 行" style="cursor: pointer;"><circle cx="-232.2559072640397" cy="-60.47473473243015" r="18" fill="#091313" fill-opacity=".01" stroke="none"/><g data-sigil="flow" data-token-angle="194.59459459459464" transform="translate(-232.2559072640397 -60.47473473243015) rotate(284.59459459459464) scale(0.68)"><title>flow · 顺序执行</title><path d="M0 -10 V10 M-5 -2 L0 3 L5 -2 M-4 -7 H4" stroke="#81e4cf" stroke-width="1.4" filter="url(#glow)"/></g></g><g data-node="f1n5" role="button" tabindex="0" aria-label="printf，第 21 行" style="cursor: pointer;"><circle cx="-170.4245634916046" cy="-168.98363281305095" r="18" fill="#091313" fill-opacity=".01" stroke="none"/><g data-sigil="call" data-token-angle="224.75675675675677" transform="translate(-170.4245634916046 -168.98363281305095) rotate(314.7567567567568) scale(0.68)"><title>call · 函数调用：穿过作用域之眼</title><path d="M-10 0 Q0 -12 10 0 Q0 12 -10 0 M0 -4 A4 4 0 1 0 0 4 A4 4 0 1 0 0 -4 M0 -10 V-6 M0 6 V10" stroke="#81e4cf" stroke-width="1.4" filter="url(#glow)"/></g></g><g data-node="f1n6" role="button" tabindex="0" aria-label="return statement，第 22 行" style="cursor: pointer;"><circle cx="-62.444567488644836" cy="-231.7340630791168" r="18" fill="#091313" fill-opacity=".01" stroke="none"/><g data-sigil="return" data-token-angle="254.9189189189189" transform="translate(-62.444567488644836 -231.7340630791168) rotate(344.9189189189189) scale(0.68)"><title>return · 结果沿折返线离开函数</title><path d="M7 -8 V3 H-7 M-2 -2 L-7 3 L-2 8 M-9 -8 H-3" stroke="#81e4cf" stroke-width="1.4" filter="url(#glow)"/></g></g></g><text x="0" y="-278" text-anchor="middle" stroke="none" fill="#81e4cf" font-family="monospace" font-size="11">main</text></g><g transform="translate(108.756934444398 50.714191408883934)" data-ring-container="gcd" data-owner="f1" data-satellite="true"><g data-function-ring="gcd" data-radius="57.599999999999994" data-period="13" transform="rotate(0)" opacity="1"><g stroke-width=".75" filter="url(#glow)"><circle r="47.599999999999994" opacity=".65"/><circle r="67.6" opacity=".8"/><circle r="71.6" opacity=".3"/><path transform="rotate(0)" d="M72.6 0 h3.5" opacity=".5"/><path transform="rotate(10)" d="M72.6 0 h4.75" opacity=".5"/><path transform="rotate(20)" d="M72.6 0 h4.5" opacity=".5"/><path transform="rotate(30)" d="M72.6 0 h4.25" opacity=".5"/><path transform="rotate(40)" d="M72.6 0 h3.25" opacity=".5"/><path transform="rotate(50)" d="M72.6 0 h2.25" opacity=".5"/><path transform="rotate(60)" d="M72.6 0 h3" opacity=".5"/><path transform="rotate(70)" d="M72.6 0 h3.25" opacity=".5"/><path transform="rotate(80)" d="M72.6 0 h4.5" opacity=".5"/><path transform="rotate(90)" d="M72.6 0 h5.25" opacity=".5"/><path transform="rotate(100)" d="M72.6 0 h3.75" opacity=".5"/><path transform="rotate(110)" d="M72.6 0 h4" opacity=".5"/><path transform="rotate(120)" d="M72.6 0 h3.5" opacity=".5"/><path transform="rotate(130)" d="M72.6 0 h2" opacity=".5"/><path transform="rotate(140)" d="M72.6 0 h4.5" opacity=".5"/><path transform="rotate(150)" d="M72.6 0 h4.75" opacity=".5"/><path transform="rotate(160)" d="M72.6 0 h4.5" opacity=".5"/><path transform="rotate(170)" d="M72.6 0 h3" opacity=".5"/><path transform="rotate(180)" d="M72.6 0 h3.25" opacity=".5"/><path transform="rotate(190)" d="M72.6 0 h4" opacity=".5"/><path transform="rotate(200)" d="M72.6 0 h3.75" opacity=".5"/><path transform="rotate(210)" d="M72.6 0 h2.5" opacity=".5"/><path transform="rotate(220)" d="M72.6 0 h2" opacity=".5"/><path transform="rotate(230)" d="M72.6 0 h3.25" opacity=".5"/><path transform="rotate(240)" d="M72.6 0 h2.75" opacity=".5"/><path transform="rotate(250)" d="M72.6 0 h5.25" opacity=".5"/><path transform="rotate(260)" d="M72.6 0 h3.25" opacity=".5"/><path transform="rotate(270)" d="M72.6 0 h4.75" opacity=".5"/><path transform="rotate(280)" d="M72.6 0 h4" opacity=".5"/><path transform="rotate(290)" d="M72.6 0 h2.75" opacity=".5"/><path transform="rotate(300)" d="M72.6 0 h3.75" opacity=".5"/><path transform="rotate(310)" d="M72.6 0 h2.25" opacity=".5"/><path transform="rotate(320)" d="M72.6 0 h5" opacity=".5"/><path transform="rotate(330)" d="M72.6 0 h5.75" opacity=".5"/><path transform="rotate(340)" d="M72.6 0 h5.5" opacity=".5"/><path transform="rotate(350)" d="M72.6 0 h5.25" opacity=".5"/></g><g data-node="f0n0" role="button" tabindex="0" aria-label="while statement，第 8 行" style="cursor: pointer;"><circle cx="30.12406751359488" cy="-49.09481190957327" r="11" fill="#091313" fill-opacity=".01" stroke="none"/><g data-sigil="while" data-token-angle="-74.23357664233576" transform="translate(15.650859944561818 -55.43293770851144) rotate(15.766423357664237) scale(0.48)"><title>while · 先判断的循环：顶部入口与闭合轨迹</title><path d="M-8 -5 Q0 -12 8 -5 V5 Q0 12 -8 5 V-5 M-11 -2 L-8 -5 L-5 -2 M-3 -2 V3 M3 -2 V3" stroke="#81e4cf" stroke-width="1.4" filter="url(#glow)"/></g><g data-sigil="!=" data-token-angle="-42.7007299270073" transform="translate(42.330583041830465 -39.06253626351846) rotate(47.2992700729927) scale(0.48)"><title>!= · 不相等：划破平衡</title><path d="M-9 -4 H9 M-9 4 H9 M-6 10 L6 -10" stroke="#81e4cf" stroke-width="1.4" filter="url(#glow)"/></g></g><g data-node="f0n1" role="button" tabindex="0" aria-label="declaration，第 9 行" style="cursor: pointer;"><circle cx="45.326098884162654" cy="35.54299874719505" r="11" fill="#091313" fill-opacity=".01" stroke="none"/><g data-sigil="bind" data-token-angle="-13.92700729927007" transform="translate(55.90674076840204 -13.863489339076692) rotate(76.07299270072993) scale(0.48)"><title>bind · 声明与名称绑定</title><path d="M0 -10 L8 0 L0 10 L-8 0 Z M-4 0 H4" stroke="#81e4cf" stroke-width="1.4" filter="url(#glow)"/></g><g data-sigil="unsigned" data-token-angle="12.087591240875916" transform="translate(56.32292803366313 12.06183144115367) rotate(102.08759124087592) scale(0.48)"><title>unsigned · 无符号范围</title><path d="M-7 -9 V3 Q-7 10 0 10 Q7 10 7 3 V-9 M-3 -3 H3" stroke="#81e4cf" stroke-width="1.4" filter="url(#glow)"/></g><g data-sigil="int" data-token-angle="38.102189781021906" transform="translate(45.326098884162654 35.54299874719505) rotate(128.1021897810219) scale(0.48)"><title>int · 整数：有刻度的计量主轴</title><path d="M0 -9 V9 M-5 -9 H5 M-5 9 H5 M-3 -2 H3 M-3 2 H3" stroke="#81e4cf" stroke-width="1.4" filter="url(#glow)"/></g><g data-sigil="=" data-token-angle="64.11678832116789" transform="translate(25.144599678572945 51.82189794868873) rotate(154.1167883211679) scale(0.48)"><title>= · 赋值：值流入存储</title><path d="M-9 -3 H6 M-9 3 H6 M3 -7 L9 0 L3 7" stroke="#81e4cf" stroke-width="1.4" filter="url(#glow)"/></g><g data-sigil="%" data-token-angle="90.13138686131387" transform="translate(-0.13208436369006651 57.59984855640566) rotate(180.13138686131387) scale(0.48)"><title>% · 余数：分割后的残留环</title><path d="M-7 9 L7 -9 M-5 -8 a3 3 0 1 0 0 6 a3 3 0 1 0 0 -6 M5 2 a3 3 0 1 0 0 6 a3 3 0 1 0 0 -6" stroke="#81e4cf" stroke-width="1.4" filter="url(#glow)"/></g></g><g data-node="f0n2" role="button" tabindex="0" aria-label="expression statement，第 10 行" style="cursor: pointer;"><circle cx="-40.49518800663897" cy="40.962174604224366" r="11" fill="#091313" fill-opacity=".01" stroke="none"/><g data-sigil="flow" data-token-angle="118.90510948905107" transform="translate(-27.841562092206168 50.4242741173914) rotate(208.90510948905109) scale(0.48)"><title>flow · 顺序执行</title><path d="M0 -10 V10 M-5 -2 L0 3 L5 -2 M-4 -7 H4" stroke="#81e4cf" stroke-width="1.4" filter="url(#glow)"/></g><g data-sigil="=" data-token-angle="150.43795620437953" transform="translate(-50.10174465315764 28.41786731459258) rotate(240.43795620437953) scale(0.48)"><title>= · 赋值：值流入存储</title><path d="M-9 -3 H6 M-9 3 H6 M3 -7 L9 0 L3 7" stroke="#81e4cf" stroke-width="1.4" filter="url(#glow)"/></g></g><g data-node="f0n3" role="button" tabindex="0" aria-label="expression statement，第 11 行" style="cursor: pointer;"><circle cx="-54.86191162520128" cy="-17.547952952655304" r="11" fill="#091313" fill-opacity=".01" stroke="none"/><g data-sigil="flow" data-token-angle="181.97080291970798" transform="translate(-57.56592853585783 -1.9808765242964703) rotate(271.970802919708) scale(0.48)"><title>flow · 顺序执行</title><path d="M0 -10 V10 M-5 -2 L0 3 L5 -2 M-4 -7 H4" stroke="#81e4cf" stroke-width="1.4" filter="url(#glow)"/></g><g data-sigil="=" data-token-angle="213.50364963503645" transform="translate(-48.029798189476985 -31.794629827662916) rotate(303.5036496350365) scale(0.48)"><title>= · 赋值：值流入存储</title><path d="M-9 -3 H6 M-9 3 H6 M3 -7 L9 0 L3 7" stroke="#81e4cf" stroke-width="1.4" filter="url(#glow)"/></g></g><g data-node="f0n4" role="button" tabindex="0" aria-label="return statement，第 13 行" style="cursor: pointer;"><circle cx="-20.044732732926512" cy="-53.99971008871754" r="11" fill="#091313" fill-opacity=".01" stroke="none"/><g data-sigil="return" data-token-angle="249.63503649635032" transform="translate(-20.044732732926512 -53.99971008871754) rotate(339.6350364963503) scale(0.48)"><title>return · 结果沿折返线离开函数</title><path d="M7 -8 V3 H-7 M-2 -2 L-7 3 L-2 8 M-9 -8 H-3" stroke="#81e4cf" stroke-width="1.4" filter="url(#glow)"/></g></g></g><text x="0" y="-7" text-anchor="middle" stroke="none" fill="#81e4cf" font-family="monospace" font-size="9">gcd</text><text x="0" y="10" text-anchor="middle" stroke="none" fill="#81e4cf" opacity=".65" font-family="monospace" font-size="8">SATELLITE · 13s</text></g><g data-result-core="number" data-inner-period="12" transform="rotate(0)" opacity=".9" stroke-width="1"><path d="M0 -20 V20 M-12 -13 H12 M-17 -5 H17 M-17 5 H17 M-12 13 H12" transform="scale(1.5)"/><circle r="41" stroke-dasharray="1 7" opacity=".45"/><title>统一结果印：数值 · 12s</title></g></g><g fill="none" stroke-width=".8" opacity=".45" pointer-events="none"/></g><text x="-366.2328767123288" y="322" font-family="monospace" font-size="9" fill="#789a85">SEAL · 6BA95145AD7860ABA45872053D5B8371</text><text x="366.2328767123288" y="322" text-anchor="end" font-family="monospace" font-size="9" fill="#789a85">STACK / C SIGILS v0.3</text></svg>